<?xml version="1.0" encoding="utf-8"?>
<!-- Uploaded to: SVG Repo, www.svgrepo.com, Generator: SVG Repo Mixer Tools -->
<svg xmlns="http://www.w3.org/2000/svg" xmlns:xlink="http://www.w3.org/1999/xlink" version="1.1" id="analysischart"  viewBox="0 0 216 220.0012" enable-background="new 0 0 216 220.0012" xml:space="preserve" width="50" height="50">
<g>
	<path fill="#D0E8FF" d="M112,8.2556v103.9219H8.0781c2.1074,53.293,46.1211,96,99.9219,96c55.1406,0,100-44.8594,100-100   C208,54.3767,165.293,10.363,112,8.2556z M108,196.1775c-2.209,0-4-1.791-4-4s1.791-4,4-4c44.1113,0,80-35.8887,80-80   c0-2.209,1.791-4,4-4s4,1.791,4,4C196,156.7009,156.5234,196.1775,108,196.1775z"/>
	<path fill="#1C71DA" d="M108,0.1775h-4v104H0v4c0,59.5508,48.4492,108,108,108s108-48.4492,108-108S167.5508,0.1775,108,0.1775z    M108,208.1775c-53.8008,0-97.8145-42.707-99.9219-96H112V8.2556c53.293,2.1074,96,46.1211,96,99.9219   C208,163.3181,163.1406,208.1775,108,208.1775z"/>
	<path fill="#1C71DA" d="M192,104.1775c-2.209,0-4,1.791-4,4c0,44.1113-35.8887,80-80,80c-2.209,0-4,1.791-4,4s1.791,4,4,4   c48.5234,0,88-39.4766,88-88C196,105.9685,194.209,104.1775,192,104.1775z"/>
	<rect x="80" y="40.1775" fill="#1C71DA" width="8" height="56"/>
	<rect x="64" y="60.1775" fill="#1C71DA" width="8" height="36"/>
	<rect x="48" y="32.1775" fill="#1C71DA" width="8" height="64"/>
	<rect x="32" y="20.1775" fill="#1C71DA" width="8" height="76"/>
	<rect x="16" y="48.1775" fill="#1C71DA" width="8" height="48"/>
</g>
<path fill="#FF5D5D" d="M64.2524,28.0012c-1.0239,0-2.0474-0.3906-2.8286-1.1714c-1.562-1.5625-1.562-4.0947,0-5.6572  L75.5659,7.0305c1.5625-1.5615,4.0947-1.5615,5.6572,0c1.562,1.5625,1.562,4.0947,0,5.6572L67.0811,26.8298  C66.2998,27.6106,65.2764,28.0012,64.2524,28.0012z"/>
<path fill="#FF5D5D" d="M78.3945,27.9998c-1.0239,0-2.0474-0.3906-2.8286-1.1714L61.4238,12.6858  c-1.562-1.5625-1.562-4.0952,0-5.6572c1.5635-1.5615,4.0957-1.561,5.6572,0l14.1421,14.1426c1.562,1.5625,1.562,4.0952,0,5.6572  C80.4419,27.6091,79.418,27.9998,78.3945,27.9998z"/>
<path fill="#00D40B" d="M14.2524,220.0012c-7.7197,0-14-6.2803-14-14s6.2803-14,14-14s14,6.2803,14,14  S21.9722,220.0012,14.2524,220.0012z M14.2524,200.0012c-3.3086,0-6,2.6914-6,6s2.6914,6,6,6s6-2.6914,6-6  S17.561,200.0012,14.2524,200.0012z"/>
<path fill="#FFC504" d="M199.5659,30.6267c-1.0239,0-2.0474-0.3906-2.8286-1.1714l-11.3135-11.3135  c-1.562-1.5625-1.562-4.0947,0-5.6572l11.3135-11.3135c1.5625-1.5615,4.0952-1.5615,5.6567,0l11.314,11.3135  c0.7505,0.7505,1.1719,1.7676,1.1719,2.8286s-0.4214,2.0781-1.1719,2.8286l-11.314,11.3135  C201.6133,30.2361,200.5894,30.6267,199.5659,30.6267z M193.9092,15.3132l5.6567,5.6567l5.6572-5.6567l-5.6572-5.6567  L193.9092,15.3132z"/>
</svg>